<svg xmlns="http://www.w3.org/2000/svg" viewBox="8.37 227.22 82.98 82.98" width="512" height="512"><style>.s0{fill:#008ea6} .s1{fill:#008ea6}</style><path fill-rule="evenodd" id="&lt;Compound Path&gt;" class="s0" d="m25.67 294.25c-1.78 0-3.56-0.47-5.19-1.41-3.25-1.88-5.19-5.24-5.19-8.99v-30.27c0-3.76 1.94-7.12 5.19-9 3.25-1.87 7.13-1.87 10.38 0l26.22 15.14c3.25 1.87 5.19 5.24 5.19 8.99 0 3.75-1.94 7.12-5.19 8.99l-26.22 15.14c-1.62 0.94-3.41 1.41-5.19 1.41zm0-46.37c-0.98 0-1.95 0.26-2.84 0.77-1.78 1.03-2.85 2.87-2.85 4.93v30.27c0 2.05 1.07 3.89 2.85 4.92 1.78 1.03 3.9 1.03 5.68 0l26.22-15.13c1.78-1.03 2.84-2.87 2.84-4.93 0-2.06-1.06-3.9-2.84-4.92l-26.22-15.14c-0.89-0.51-1.86-0.77-2.84-0.77z"/><path fill-rule="evenodd" id="&lt;Compound Path&gt;" class="s0" d="m47.84 294.25c-1.79 0-3.57-0.47-5.2-1.41-3.25-1.88-5.19-5.24-5.19-8.99v-30.27c0-3.76 1.94-7.12 5.19-9 3.25-1.87 7.14-1.87 10.39 0l26.21 15.14c3.25 1.87 5.2 5.24 5.2 8.99 0 3.75-1.94 7.12-5.2 8.99l-26.21 15.14c-1.63 0.94-3.41 1.41-5.19 1.41zm0-46.37c-0.98 0-1.96 0.26-2.85 0.77-1.78 1.03-2.84 2.87-2.84 4.93v30.27c0 2.05 1.06 3.89 2.84 4.92 1.78 1.03 3.91 1.03 5.69 0l26.22-15.13c1.78-1.03 2.84-2.87 2.84-4.93 0-2.06-1.06-3.9-2.84-4.92l-26.22-15.14c-0.89-0.51-1.87-0.77-2.84-0.77z"/></svg>
