<svg version="1.2" xmlns="http://www.w3.org/2000/svg" viewBox="0 -0.1758475919390321 699.6691783861439 309.17584759193903" width="700" height="310">
	<style>
		.s0 { fill: #231f20 } 
		.s1 { fill: #198ea6 } 
	</style>
	<g id="Layer 1">
		<g id="&lt;Group&gt;">
			<g id="&lt;Group&gt;">
				<g id="&lt;Group&gt;">
					<path id="&lt;Compound Path&gt;" class="s0" d="m25.67 294.25c-1.78 0-3.56-0.47-5.19-1.41-3.25-1.88-5.19-5.24-5.19-8.99v-30.27c0-3.76 1.94-7.12 5.19-9 3.25-1.87 7.13-1.87 10.38 0l26.22 15.14c3.25 1.87 5.19 5.24 5.19 8.99 0 3.75-1.94 7.12-5.19 8.99l-26.22 15.14c-1.62 0.94-3.41 1.41-5.19 1.41zm0-46.37c-0.98 0-1.95 0.26-2.84 0.77-1.78 1.03-2.85 2.87-2.85 4.93v30.27c0 2.05 1.07 3.89 2.85 4.92 1.78 1.03 3.9 1.03 5.68 0l26.22-15.13c1.78-1.03 2.84-2.87 2.84-4.93 0-2.06-1.06-3.9-2.84-4.92l-26.22-15.14c-0.89-0.51-1.86-0.77-2.84-0.77z"/>
				</g>
			</g>
			<g id="&lt;Group&gt;">
				<g id="&lt;Group&gt;">
					<path id="&lt;Compound Path&gt;" class="s0" d="m47.84 294.25c-1.79 0-3.57-0.47-5.2-1.41-3.25-1.88-5.19-5.24-5.19-8.99v-30.27c0-3.76 1.94-7.12 5.19-9 3.25-1.87 7.14-1.87 10.39 0l26.21 15.14c3.25 1.87 5.2 5.24 5.2 8.99 0 3.75-1.94 7.12-5.2 8.99l-26.21 15.14c-1.63 0.94-3.41 1.41-5.19 1.41zm0-46.37c-0.98 0-1.96 0.26-2.85 0.77-1.78 1.03-2.84 2.87-2.84 4.93v30.27c0 2.05 1.06 3.89 2.84 4.92 1.78 1.03 3.91 1.03 5.69 0l26.22-15.13c1.78-1.03 2.84-2.87 2.84-4.93 0-2.06-1.06-3.9-2.84-4.92l-26.22-15.14c-0.89-0.51-1.87-0.77-2.84-0.77z"/>
				</g>
			</g>
			<g id="&lt;Group&gt;">
				<path id="&lt;Compound Path&gt;" class="s1" d="m100 294.24q-0.37 0.33-1.25 0.33h-4.09q-0.88 0-1.25-0.33-0.36-0.32-0.36-1.28v-47.96q0-0.95 0.36-1.28 0.37-0.33 1.25-0.33h27.86q0.87 0 1.24 0.33 0.37 0.33 0.37 1.28v3.73q0 0.95-0.37 1.28-0.37 0.33-1.24 0.32h-21.28q-0.51 0.01-0.7 0.19-0.18 0.18-0.18 0.62v14.48q0 0.44 0.18 0.62 0.19 0.18 0.7 0.18h18.72q0.95 0 1.31 0.37 0.37 0.36 0.37 1.31v3.66q0 0.88-0.37 1.24-0.36 0.37-1.31 0.37h-18.72q-0.51 0-0.7 0.18-0.18 0.18-0.18 0.62v18.79q0 0.96-0.36 1.28z"/>
				<path id="&lt;Compound Path&gt;" class="s1" d="m126.54 292.38q-0.59 1.32-1.17 1.75-0.59 0.44-1.76 0.44h-3.8q-1.46 0-1.46-0.95 0-0.36 0.37-1.24l22-46.36q1.1-2.27 1.61-2.96 0.51-0.7 1.25-0.7 0.65 0 1.13 0.7 0.47 0.69 1.57 2.96l22.23 46.36q0.37 0.88 0.37 1.24 0 0.95-1.54 0.95h-4.09q-1.17 0-1.72-0.44-0.55-0.43-1.21-1.75l-16.89-36.42z"/>
				<path id="&lt;Compound Path&gt;" class="s1" d="m176.7 294.24q-0.37 0.33-1.24 0.33h-4.1q-0.88 0-1.24-0.33-0.37-0.32-0.37-1.28v-47.96q0-0.95 0.37-1.28 0.36-0.33 1.24-0.33h4.1q0.87 0 1.24 0.33 0.37 0.33 0.37 1.28v47.96q0 0.96-0.37 1.28z"/>
				<path id="&lt;Compound Path&gt;" class="s1" d="m218.52 250.01q-0.36 0.33-1.24 0.32h-13.75q-0.51 0.01-0.69 0.19-0.18 0.18-0.18 0.62v41.82q0 0.96-0.37 1.28-0.36 0.33-1.24 0.33h-4.1q-0.87 0-1.24-0.33-0.36-0.32-0.36-1.28v-41.82q0-0.44-0.19-0.62-0.18-0.18-0.69-0.19h-13.75q-0.88 0.01-1.24-0.32-0.37-0.33-0.37-1.28v-3.73q0-0.95 0.37-1.28 0.36-0.33 1.24-0.33h36.56q0.88 0 1.24 0.33 0.37 0.33 0.37 1.28v3.73q0 0.95-0.37 1.28z"/>
				<path id="&lt;Compound Path&gt;" class="s1" d="m261.15 294.24q-0.36 0.33-1.24 0.33h-4.09q-0.88 0-1.25-0.33-0.36-0.32-0.36-1.28v-20.4q0-0.43-0.19-0.62-0.18-0.18-0.69-0.18h-24.2q-0.52 0-0.7 0.18-0.18 0.19-0.18 0.62v20.4q0 0.96-0.37 1.28-0.36 0.33-1.24 0.33h-4.1q-0.87 0-1.24-0.33-0.36-0.32-0.36-1.28v-47.96q0-0.95 0.36-1.28 0.37-0.33 1.24-0.33h4.1q0.88 0 1.24 0.33 0.37 0.33 0.37 1.28v19.01q0 0.44 0.18 0.66 0.18 0.22 0.7 0.22h24.2q0.51 0 0.69-0.22 0.19-0.22 0.19-0.66v-19.01q0-0.95 0.36-1.28 0.37-0.33 1.25-0.33h4.09q0.88 0 1.24 0.33 0.37 0.33 0.37 1.28v47.96q0 0.96-0.37 1.28z"/>
			</g>
			<g id="&lt;Group&gt;">
				<g id="&lt;Group&gt;">
					<path id="&lt;Compound Path&gt;" class="s0" d="m265.74 243.85q0.12-0.1 0.39-0.1h4.69q2.61 0 4.54 0.96 1.92 0.95 2.95 2.69 1.02 1.73 1.02 4.05 0 2.44-1.07 4.26-1.07 1.83-3.06 2.82-2 0.99-4.7 0.99h-4.37q-0.27 0-0.39-0.1-0.11-0.1-0.11-0.39v-14.79q0-0.29 0.11-0.39zm2.2 2.09q-0.05 0.06-0.05 0.2v10.99q0 0.14 0.05 0.2 0.06 0.05 0.22 0.05h2.39q2.02 0 3.48-0.71 1.45-0.71 2.21-2.02 0.75-1.3 0.75-3.11 0-1.69-0.75-2.97-0.76-1.28-2.19-1.98-1.43-0.7-3.41-0.7h-2.48q-0.16 0-0.22 0.05z"/>
					<path id="&lt;Compound Path&gt;" class="s0" d="m280.84 258.85q-0.18 0.4-0.36 0.54-0.18 0.13-0.54 0.13h-1.17q-0.45 0-0.45-0.29 0-0.11 0.11-0.38l6.79-14.29q0.33-0.7 0.49-0.91 0.16-0.22 0.39-0.22 0.2 0 0.34 0.22 0.15 0.21 0.49 0.91l6.85 14.29q0.11 0.27 0.11 0.38 0 0.29-0.47 0.29h-1.26q-0.36 0-0.53-0.13-0.17-0.14-0.37-0.54l-5.21-11.23z"/>
					<path id="&lt;Compound Path&gt;" class="s0" d="m304.82 243.85q0.11-0.1 0.39-0.1h1.26q0.27 0 0.38 0.1 0.11 0.1 0.11 0.39v14.79q0 0.74-0.45 0.74-0.18 0-0.38-0.15-0.2-0.14-0.56-0.55l-9.15-10.79v10.75q0 0.29-0.12 0.39-0.11 0.1-0.38 0.1h-1.26q-0.27 0-0.38-0.1-0.12-0.1-0.12-0.39v-14.79q0-0.38 0.12-0.56 0.11-0.18 0.36-0.18 0.18 0 0.38 0.15 0.2 0.14 0.54 0.55l9.15 10.79v-10.75q0-0.29 0.11-0.39z"/>
					<path id="&lt;Compound Path&gt;" class="s0" d="m320.94 256.01q0.24-0.21 0.38-0.21 0.09 0 0.18 0.07 0.09 0.07 0.16 0.16l0.65 0.9q0.11 0.14 0.11 0.32 0 0.09-0.06 0.19-0.07 0.1-0.21 0.21-1.19 1.02-2.69 1.57-1.5 0.55-3.14 0.55-2.21 0-4.05-1.04-1.84-1.03-2.91-2.88-1.07-1.85-1.07-4.15 0-2.32 1.07-4.19 1.07-1.87 2.93-2.94 1.86-1.07 4.16-1.07 1.62 0 3.1 0.56 1.48 0.57 2.63 1.53 0.22 0.16 0.22 0.34 0 0.16-0.13 0.36l-0.66 0.88q-0.18 0.25-0.36 0.25-0.13 0-0.38-0.18-0.97-0.74-2.1-1.17-1.12-0.43-2.36-0.43-1.6 0-2.92 0.77-1.32 0.76-2.09 2.14-0.76 1.37-0.76 3.11 0 1.67 0.75 3.04 0.76 1.37 2.08 2.15 1.31 0.78 2.94 0.78 2.54 0 4.53-1.62z"/>
					<path id="&lt;Compound Path&gt;" class="s0" d="m332.77 257.48q0.11 0.1 0.11 0.4v1.15q0 0.29-0.11 0.39-0.12 0.1-0.39 0.1h-8.54q-0.27 0-0.38-0.1-0.11-0.1-0.11-0.39v-14.79q0-0.29 0.11-0.39 0.11-0.1 0.38-0.1h8.52q0.27 0 0.38 0.1 0.12 0.1 0.12 0.39v1.15q0 0.3-0.12 0.4-0.11 0.1-0.38 0.1h-6.49q-0.16 0-0.21 0.05-0.06 0.06-0.06 0.2v4.12q0 0.16 0.06 0.21 0.05 0.06 0.21 0.06h5.73q0.27 0 0.38 0.1 0.11 0.1 0.11 0.4v1.12q0 0.27-0.11 0.39-0.11 0.11-0.38 0.11h-5.73q-0.16 0-0.21 0.06-0.06 0.05-0.06 0.19v4.23q0 0.14 0.06 0.2 0.05 0.05 0.21 0.05h6.51q0.27 0 0.39 0.1z"/>
				</g>
			</g>
			<g id="&lt;Group&gt;">
				<g id="&lt;Group&gt;">
					<path id="&lt;Compound Path&gt;" class="s0" d="m266.93 262.98q0.55-1 1.58-1.59 1.02-0.59 2.37-0.59 1.36 0 2.34 0.55 0.98 0.54 1.49 1.46 0.52 0.92 0.52 2.07 0 1.6-1.09 2.69-1.09 1.08-2.96 1.6l3.31 3.33q0.54-0.56 1.1-1.38 0.57-0.83 0.95-1.59 0.2-0.39 0.45-0.39 0.09 0 0.32 0.12l0.88 0.54q0.18 0.11 0.24 0.2 0.07 0.09 0.07 0.2 0 0.11-0.11 0.39-0.41 0.83-1.07 1.79-0.67 0.95-1.32 1.61l2.28 2.25q0.24 0.25 0.24 0.38 0 0.21-0.45 0.21h-1.62q-0.34 0-0.51-0.07-0.17-0.07-0.41-0.31l-1.11-1.13q-2.07 1.78-4.69 1.78-1.71 0-2.9-0.6-1.2-0.6-1.81-1.62-0.6-1.03-0.6-2.31 0-1.51 0.87-2.58 0.88-1.07 2.39-1.61-0.61-0.7-0.95-1.54-0.35-0.83-0.35-1.69 0-1.17 0.55-2.17zm0.18 10.77q0.37 0.6 1.07 0.94 0.7 0.33 1.64 0.34 0.97 0 1.73-0.3 0.75-0.29 1.41-0.85l-4.04-4.15q-1.08 0.36-1.63 1.05-0.55 0.68-0.55 1.63 0 0.75 0.37 1.34zm5.63-9.83q-0.23-0.5-0.72-0.8-0.48-0.31-1.16-0.31-0.65 0-1.16 0.32-0.51 0.31-0.78 0.84-0.27 0.53-0.27 1.21 0 0.7 0.34 1.36 0.34 0.67 0.92 1.25 1.67-0.36 2.37-1.07 0.7-0.71 0.7-1.77 0-0.54-0.24-1.03z"/>
					<path id="&lt;Compound Path&gt;" class="s0" d="m284.61 276.15q-0.18 0.41-0.36 0.54-0.18 0.14-0.54 0.14h-1.18q-0.45 0-0.45-0.29 0-0.12 0.12-0.39l6.78-14.29q0.34-0.69 0.5-0.91 0.15-0.21 0.38-0.21 0.2 0 0.35 0.21 0.14 0.22 0.48 0.91l6.85 14.29q0.12 0.27 0.12 0.39 0 0.29-0.48 0.29h-1.26q-0.36 0-0.53-0.14-0.17-0.13-0.37-0.54l-5.21-11.22z"/>
					<path id="&lt;Compound Path&gt;" class="s0" d="m300.07 276.73q-0.12 0.1-0.39 0.1h-1.26q-0.27 0-0.38-0.1-0.11-0.1-0.11-0.4v-14.78q0-0.29 0.11-0.4 0.11-0.1 0.38-0.1h4.31q6.42 0 6.42 4.89 0 1.63-0.81 2.67-0.81 1.05-2.26 1.55l3.88 5.99q0.18 0.25 0.18 0.43 0 0.14-0.12 0.19-0.13 0.06-0.37 0.06h-1.33q-0.39 0-0.57-0.11-0.18-0.12-0.43-0.5l-4.14-6.58q-0.14-0.18-0.14-0.32 0-0.18 0.34-0.2 3.4-0.36 3.4-3.04 0-1.53-1.07-2.24-1.07-0.71-3.1-0.71h-2.16q-0.16 0-0.21 0.05-0.06 0.06-0.06 0.22v12.93q0 0.3-0.11 0.4z"/>
					<path id="&lt;Compound Path&gt;" class="s0" d="m321.09 263.09q-0.11 0.1-0.38 0.1h-4.24q-0.15 0-0.21 0.06-0.06 0.06-0.06 0.19v12.89q0 0.3-0.11 0.4-0.11 0.1-0.38 0.1h-1.26q-0.28 0-0.39-0.1-0.11-0.1-0.11-0.4v-12.89q0-0.13-0.06-0.19-0.05-0.06-0.21-0.06h-4.24q-0.27 0-0.38-0.1-0.11-0.1-0.11-0.39v-1.15q0-0.29 0.11-0.4 0.11-0.1 0.38-0.1h11.27q0.27 0 0.38 0.1 0.12 0.11 0.12 0.4v1.15q0 0.29-0.12 0.39z"/>
				</g>
			</g>
			<g id="&lt;Group&gt;">
				<g id="&lt;Group&gt;">
					<path id="&lt;Compound Path&gt;" class="s0" d="m266.15 293.46q-0.18 0.4-0.36 0.54-0.18 0.13-0.54 0.13h-1.17q-0.45 0-0.45-0.29 0-0.11 0.11-0.38l6.78-14.29q0.34-0.7 0.5-0.91 0.16-0.22 0.38-0.22 0.2 0 0.35 0.22 0.15 0.21 0.49 0.91l6.85 14.29q0.11 0.27 0.11 0.38 0 0.29-0.47 0.29h-1.27q-0.36 0-0.53-0.13-0.16-0.14-0.37-0.54l-5.2-11.22z"/>
					<path id="&lt;Compound Path&gt;" class="s0" d="m290.72 290.62q0.24-0.2 0.38-0.2 0.09 0 0.18 0.06 0.09 0.07 0.16 0.16l0.65 0.9q0.11 0.14 0.11 0.32 0 0.09-0.06 0.19-0.07 0.1-0.21 0.21-1.19 1.02-2.69 1.57-1.5 0.55-3.14 0.55-2.21 0-4.05-1.03-1.84-1.04-2.91-2.89-1.07-1.85-1.07-4.15 0-2.32 1.07-4.19 1.07-1.87 2.93-2.94 1.86-1.07 4.16-1.07 1.62 0 3.1 0.56 1.47 0.57 2.62 1.54 0.23 0.16 0.23 0.33 0 0.16-0.14 0.37l-0.65 0.88q-0.18 0.24-0.36 0.24-0.13 0-0.38-0.18-0.97-0.74-2.1-1.17-1.13-0.43-2.36-0.43-1.6 0-2.92 0.77-1.32 0.76-2.09 2.14-0.76 1.37-0.76 3.11 0 1.67 0.75 3.04 0.76 1.38 2.07 2.15 1.32 0.78 2.95 0.78 2.54 0 4.53-1.62z"/>
					<path id="&lt;Compound Path&gt;" class="s0" d="m294.1 293.46q-0.19 0.4-0.37 0.54-0.18 0.13-0.54 0.13h-1.17q-0.45 0-0.45-0.29 0-0.11 0.11-0.38l6.79-14.29q0.33-0.7 0.49-0.91 0.16-0.22 0.39-0.22 0.2 0 0.35 0.22 0.14 0.21 0.48 0.91l6.85 14.29q0.11 0.27 0.11 0.38 0 0.29-0.47 0.29h-1.26q-0.36 0-0.53-0.13-0.17-0.14-0.37-0.54l-5.21-11.22z"/>
					<path id="&lt;Compound Path&gt;" class="s0" d="m307.53 278.46q0.11-0.1 0.38-0.1h4.69q2.61 0 4.54 0.96 1.93 0.96 2.95 2.69 1.03 1.74 1.03 4.06 0 2.43-1.07 4.26-1.07 1.82-3.07 2.81-1.99 0.99-4.7 0.99h-4.37q-0.27 0-0.38-0.1-0.12-0.1-0.12-0.39v-14.78q0-0.3 0.12-0.4zm2.19 2.1q-0.05 0.05-0.05 0.19v11q0 0.13 0.05 0.19 0.06 0.05 0.22 0.05h2.39q2.03 0 3.48-0.71 1.45-0.71 2.21-2.01 0.75-1.31 0.75-3.11 0-1.69-0.75-2.98-0.76-1.28-2.19-1.98-1.43-0.7-3.41-0.7h-2.48q-0.16 0-0.22 0.06z"/>
					<path id="&lt;Compound Path&gt;" class="s0" d="m331.87 292.1q0.11 0.1 0.11 0.39v1.15q0 0.29-0.11 0.39-0.12 0.1-0.39 0.1h-8.54q-0.27 0-0.38-0.1-0.11-0.1-0.11-0.39v-14.78q0-0.3 0.11-0.4 0.11-0.1 0.38-0.1h8.52q0.27 0 0.38 0.1 0.12 0.1 0.12 0.4v1.14q0 0.3-0.12 0.4-0.11 0.1-0.38 0.1h-6.49q-0.16 0-0.21 0.06-0.06 0.05-0.06 0.19v4.12q0 0.16 0.06 0.22 0.05 0.05 0.21 0.05h5.72q0.27 0 0.39 0.1 0.11 0.11 0.11 0.4v1.13q0 0.27-0.11 0.38-0.12 0.11-0.39 0.11h-5.72q-0.16 0-0.21 0.06-0.06 0.05-0.06 0.19v4.24q0 0.13 0.06 0.19 0.05 0.05 0.21 0.05h6.51q0.27 0 0.39 0.11z"/>
					<path id="&lt;Compound Path&gt;" class="s0" d="m335.74 293.64q0 0.29-0.11 0.39-0.11 0.1-0.38 0.1h-1.27q-0.27 0-0.38-0.1-0.11-0.1-0.11-0.39v-14.76q0-0.39 0.1-0.57 0.1-0.18 0.35-0.18 0.18 0 0.36 0.15 0.18 0.15 0.49 0.51l6.29 7.55 6.2-7.55q0.36-0.39 0.52-0.52 0.16-0.14 0.34-0.14 0.24 0 0.35 0.18 0.1 0.18 0.1 0.57v14.76q0 0.29-0.12 0.39-0.11 0.1-0.38 0.1h-1.26q-0.27 0-0.38-0.1-0.12-0.1-0.12-0.39v-10.5l-4.5 5.54q-0.3 0.38-0.45 0.51-0.16 0.12-0.34 0.12-0.18 0-0.34-0.12-0.16-0.13-0.45-0.51l-4.51-5.54z"/>
					<path id="&lt;Compound Path&gt;" class="s0" d="m359.86 278.92q0.22-0.36 0.38-0.46 0.16-0.1 0.52-0.1h1.33q0.2 0 0.31 0.07 0.12 0.06 0.12 0.18 0 0.09-0.12 0.31l-5.59 9.27v5.45q0 0.29-0.11 0.39-0.11 0.1-0.38 0.1h-1.26q-0.27 0-0.39-0.1-0.11-0.1-0.11-0.39v-5.34l-5.59-9.38q-0.11-0.22-0.11-0.31 0-0.14 0.1-0.19 0.1-0.06 0.3-0.06h1.4q0.38 0 0.54 0.1 0.16 0.1 0.38 0.46l4.13 7.12z"/>
				</g>
			</g>
		</g>
	</g>
</svg>