<svg width="864" height="869" viewBox="0 0 864 869" fill="none" xmlns="http://www.w3.org/2000/svg">
<path d="M288.963 675.114C227.063 670.414 169.163 638.114 135.063 589.214C127.863 578.814 126.763 580.414 160.463 551.114C196.063 520.214 193.563 521.214 205.063 534.414C218.463 550.014 238.563 566.014 254.863 574.314C263.163 578.414 276.163 583.014 286.463 585.414C297.263 587.914 320.563 587.914 329.963 585.414C337.763 583.314 349.863 578.814 350.563 577.614C350.863 577.214 351.863 576.814 352.863 576.814C354.863 576.814 368.563 563.014 371.663 557.814C372.863 555.914 375.463 550.014 377.463 544.814C400.963 484.814 442.263 441.914 499.163 418.414C514.763 411.914 536.563 405.614 549.463 403.814C576.463 399.914 577.563 399.914 646.263 399.814H713.963V440.314V480.814H647.563C611.063 480.814 579.163 481.114 576.563 481.414L571.963 482.114V577.414V672.814H525.963H479.963V600.014V527.214L490.263 517.114C495.863 511.614 501.863 506.414 503.463 505.514C505.163 504.714 543.363 490.114 544.963 488.314V482.114L525.213 491.664L505.463 501.214C501.663 503.314 497.563 505.814 496.463 506.714C495.363 507.614 492.463 509.714 490.063 511.414C487.563 513.014 481.863 518.014 477.263 522.514L468.963 530.614V536.014C468.963 545.814 466.863 563.114 464.463 572.414C449.963 629.814 398.363 668.614 328.663 674.814C318.163 675.714 299.063 675.914 288.963 675.114Z" fill="#C83150"/>
<path d="M376.963 517.814C376.963 515.114 372.063 506.914 367.363 501.814C355.263 488.814 338.363 480.214 280.963 458.214C229.363 438.414 206.163 425.714 187.063 406.614C170.063 389.714 161.263 371.414 157.863 346.014C156.463 335.514 157.263 309.514 159.363 299.214C162.863 281.714 170.463 265.414 181.463 251.314C187.563 243.414 196.263 234.814 198.063 234.814C198.563 234.814 201.863 232.314 205.463 229.314C223.763 213.714 251.663 203.314 285.063 199.714C301.063 197.914 332.463 199.114 347.963 202.114C383.163 208.914 418.463 227.114 444.263 251.714C452.363 259.514 453.163 258.114 420.863 291.114C387.763 324.814 390.163 323.514 379.063 314.014C353.663 292.114 329.363 282.614 302.163 284.114C289.763 284.714 282.263 286.514 272.163 291.314C249.263 302.114 241.863 325.114 256.163 341.314C265.163 351.514 280.263 359.214 322.963 375.314C386.063 399.114 411.763 412.514 435.763 434.314C441.563 439.614 441.963 440.214 441.963 444.414C441.963 446.814 441.563 448.814 440.963 448.814C439.263 448.814 415.963 472.014 409.063 480.714C401.263 490.514 391.863 504.614 387.463 513.014C384.663 518.514 384.263 518.814 380.763 518.814C378.663 518.814 376.963 518.314 376.963 517.814Z" fill="#C83150"/>
<path d="M479.963 312.414V204.814H611.963H743.963V247.314V289.814H657.963H571.963V343.214V396.514L561.863 397.714C540.663 400.114 517.863 406.114 498.463 414.414C492.463 416.914 485.763 419.314 483.763 419.514L479.963 420.014V312.414Z" fill="#C83150"/>
<path d="M197.963 868.114C157.263 863.914 118.563 848.714 85.5629 823.814C37.4629 787.614 6.16285 730.714 0.962848 670.014C-0.337152 654.114 -0.337153 216.214 1.06285 199.814C3.96285 165.214 16.9628 127.914 36.4628 98.9144C61.9628 60.7144 97.4628 32.2144 141.363 14.8144C153.463 10.0144 174.363 4.61441 187.463 2.81441C208.763 -0.0855885 225.563 -0.185585 441.063 0.114415C641.263 0.414415 663.463 0.514409 672.463 2.01441C724.663 10.6144 764.863 30.6144 799.563 65.2144C833.963 99.6144 854.663 142.014 862.163 193.314C863.163 200.514 863.463 249.114 863.463 436.314C863.463 658.614 863.363 670.914 861.663 681.814C857.763 705.914 851.463 726.014 840.963 747.314C808.863 813.014 745.963 857.514 671.563 867.314C661.263 868.614 631.763 868.814 430.663 868.614C304.563 868.614 199.863 868.314 197.963 868.114ZM325.663 671.814C387.563 666.314 437.063 633.914 455.963 586.414C461.963 571.414 465.963 550.114 465.963 533.014V527.614L474.263 519.514C478.863 515.014 484.563 510.014 487.063 508.314C489.463 506.714 508.363 495.114 509.963 493.814C513.963 490.614 526.763 487.414 534.963 484.814C551.763 479.488 571.163 478.414 573.563 478.414L585.463 487.314L571.891 513.314L571.963 486.314H564.313L550.463 488.314L542.463 490.814L532.963 493.814C522.463 498.314 516.963 499.714 511.263 505.014C508.863 507.114 506.563 508.814 505.963 508.814C505.363 508.814 499.863 513.614 493.863 519.514L482.963 530.114V600.014V669.814H525.963H568.963V574.414L573.563 478.414C576.163 478.114 608.063 477.814 644.563 477.814H710.963V440.314V402.814H646.263C580.663 402.914 579.363 402.914 552.463 406.814C539.563 408.614 517.763 414.914 502.163 421.414C459.063 439.214 424.263 468.814 399.463 508.814C392.963 519.314 386.163 533.314 380.463 547.814C378.463 553.014 375.863 558.914 374.663 560.814C371.563 566.014 357.863 579.814 355.863 579.814C354.863 579.814 353.863 580.214 353.563 580.614C352.863 581.814 340.863 586.314 332.963 588.514C323.463 591.014 294.563 591.014 283.463 588.414C273.163 586.014 260.163 581.414 251.863 577.314C235.563 569.014 215.463 553.014 202.063 537.414C197.963 532.714 194.163 528.814 193.763 528.814C192.863 528.814 135.563 578.114 134.563 579.714C133.263 581.814 151.563 604.514 164.263 616.514C206.763 656.514 266.663 677.014 325.663 671.814ZM384.463 510.014C388.863 501.614 398.263 487.514 406.063 477.714C412.963 469.014 436.263 445.814 437.963 445.814C444.163 445.814 423.163 427.614 402.963 415.414C383.963 403.914 363.363 394.714 319.963 378.314C257.763 354.914 245.363 345.414 245.563 321.814C245.763 303.614 259.163 289.614 282.463 283.214C290.663 281.014 313.863 280.214 323.763 281.814C344.463 285.114 362.663 294.214 382.363 311.214L389.263 317.214L417.663 288.314L445.963 259.414L443.263 256.514C427.463 239.914 395.163 220.114 369.763 211.614C324.963 196.714 270.063 199.114 231.463 217.814C220.163 223.314 215.763 226.014 208.463 232.314C204.863 235.314 201.563 237.814 201.063 237.814C199.263 237.814 190.563 246.414 184.463 254.314C169.063 274.014 161.763 294.514 160.363 321.814C158.663 355.214 168.363 382.014 190.063 403.614C209.163 422.714 232.363 435.414 283.963 455.214C341.363 477.214 358.263 485.814 370.363 498.814C375.063 503.914 379.963 512.114 379.963 514.814C379.963 517.214 381.663 515.414 384.463 510.014ZM505.263 407.414C521.763 401.214 544.263 396.014 562.263 394.214L568.963 393.614V340.214V286.814H654.963H740.963V247.314V207.814H611.963H482.963V312.214V416.714L489.263 413.914C492.663 412.314 499.863 409.414 505.263 407.414Z" fill="#182B54"/>
</svg>
